<svg xmlns="http://www.w3.org/2000/svg" width="900" height="520" viewBox="0 0 900 520">
  <defs>
    <linearGradient id="g" x1="0" x2="1" y1="0" y2="1">
      <stop offset="0" stop-color="#dff6ff"/>
      <stop offset="1" stop-color="#fff0bc"/>
    </linearGradient>
    <filter id="s" x="-20%" y="-20%" width="140%" height="140%">
      <feDropShadow dx="0" dy="12" stdDeviation="16" flood-color="#27679e" flood-opacity=".18"/>
    </filter>
  </defs>
  <rect width="900" height="520" rx="44" fill="url(#g)"/>
  <circle cx="760" cy="80" r="145" fill="#fff" opacity=".22"/>
  <circle cx="120" cy="430" r="170" fill="#fff" opacity=".20"/>
  <g stroke="#1a91d6" stroke-width="18" fill="none" opacity=".85"><circle cx="560" cy="275" r="110"/><circle cx="560" cy="275" r="48"/><path d="M560 165v-70M560 455v-70M450 275h-75M745 275h-75M482 197l-55-55M638 353l55 55M638 197l55-55M482 353l-55 55"/></g><circle cx="560" cy="275" r="26" fill="#f5b700"/>
  <g filter="url(#s)">
    <rect x="54" y="52" width="360" height="110" rx="28" fill="#fff" opacity=".88"/>
    <text x="84" y="102" font-family="Arial, sans-serif" font-size="34" font-weight="800" fill="#17324d">电机与电器</text>
    <text x="84" y="136" font-family="Arial, sans-serif" font-size="20" fill="#5f7288">Motor & Apparatus</text>
  </g>
</svg>