<svg xmlns="http://www.w3.org/2000/svg" width="1100" height="640" viewBox="0 0 1100 640">
  <defs>
    <linearGradient id="bg" x1="0" y1="0" x2="1" y2="1">
      <stop offset="0%" stop-color="#e8f7ff"/>
      <stop offset="55%" stop-color="#ffffff"/>
      <stop offset="100%" stop-color="#f7efff"/>
    </linearGradient>
    <radialGradient id="shine" cx="72%" cy="28%" r="55%">
      <stop offset="0%" stop-color="#ffffff" stop-opacity="0.75"/>
      <stop offset="50%" stop-color="#ffffff" stop-opacity="0.18"/>
      <stop offset="100%" stop-color="#ffffff" stop-opacity="0"/>
    </radialGradient>
    <filter id="shadow" x="-20%" y="-20%" width="140%" height="140%">
      <feDropShadow dx="0" dy="16" stdDeviation="18" flood-color="#245b88" flood-opacity="0.18"/>
    </filter>
    <pattern id="grid" width="34" height="34" patternUnits="userSpaceOnUse">
      <path d="M34 0H0V34" fill="none" stroke="#ffffff" stroke-opacity="0.18" stroke-width="1"/>
    </pattern>
  </defs>
  <rect width="1100" height="640" rx="56" fill="url(#bg)"/>
  <rect width="1100" height="640" rx="56" fill="url(#grid)" opacity=".65"/>
  <circle cx="865" cy="115" r="210" fill="url(#shine)"/>
  <circle cx="120" cy="555" r="230" fill="#ffffff" opacity=".18"/>
  
  <g fill="none" stroke="#1a91d6" stroke-width="12">
    <circle cx="650" cy="310" r="78"/>
    <circle cx="650" cy="310" r="150" opacity=".48"/>
    <circle cx="650" cy="310" r="225" opacity=".26"/>
  </g>
  <g fill="#ffffff" filter="url(#shadow)">
    <rect x="235" y="250" width="180" height="145" rx="30" opacity=".92"/>
    <rect x="790" y="205" width="150" height="205" rx="28" opacity=".92"/>
  </g>
  <g stroke="#13a886" stroke-width="11" fill="none" stroke-linecap="round">
    <path d="M270 310h108M292 350h65M322 250v-45"/>
    <path d="M830 250h70M830 305h70M830 360h70"/>
  </g>
  <g fill="#ff6ba8">
    <circle cx="650" cy="310" r="26"/><circle cx="790" cy="205" r="17"/><circle cx="500" cy="395" r="17"/><circle cx="720" cy="470" r="17"/>
  </g>
  <path d="M415 325C480 290 540 330 624 310M676 310C735 282 765 240 790 205" stroke="#8067e8" stroke-width="8" fill="none" stroke-linecap="round" opacity=".75"/>

  <g filter="url(#shadow)">
    <rect x="58" y="56" width="470" height="126" rx="34" fill="#ffffff" opacity=".92"/>
    <text x="96" y="112" font-family="Microsoft YaHei, PingFang SC, Arial, sans-serif" font-size="38" font-weight="900" fill="#17324d">电气检测与信息化</text>
    <text x="96" y="150" font-family="Arial, sans-serif" font-size="22" font-weight="700" fill="#5f7288">Sensing · IoT · Digital Twin</text>
  </g>
</svg>