<svg xmlns="http://www.w3.org/2000/svg" width="900" height="520" viewBox="0 0 900 520">
  <defs>
    <linearGradient id="g" x1="0" x2="1" y1="0" y2="1">
      <stop offset="0" stop-color="#fff5d8"/>
      <stop offset="1" stop-color="#e9f8ff"/>
    </linearGradient>
    <filter id="s" x="-20%" y="-20%" width="140%" height="140%">
      <feDropShadow dx="0" dy="12" stdDeviation="16" flood-color="#27679e" flood-opacity=".18"/>
    </filter>
  </defs>
  <rect width="900" height="520" rx="44" fill="url(#g)"/>
  <circle cx="760" cy="80" r="145" fill="#fff" opacity=".22"/>
  <circle cx="120" cy="430" r="170" fill="#fff" opacity=".20"/>
  <g filter="url(#s)"><rect x="460" y="150" width="250" height="210" rx="30" fill="#fff" opacity=".88"/><path d="M500 235h65l-30-55h95l-45 80h80" fill="none" stroke="#ff8a3d" stroke-width="16" stroke-linecap="round" stroke-linejoin="round"/><g stroke="#1a91d6" stroke-width="12"><path d="M510 130v55M560 130v55M610 130v55M660 130v55M510 360v55M560 360v55M610 360v55M660 360v55"/></g></g>
  <g filter="url(#s)">
    <rect x="54" y="52" width="360" height="110" rx="28" fill="#fff" opacity=".88"/>
    <text x="84" y="102" font-family="Arial, sans-serif" font-size="34" font-weight="800" fill="#17324d">电力电子</text>
    <text x="84" y="136" font-family="Arial, sans-serif" font-size="20" fill="#5f7288">Power Electronics</text>
  </g>
</svg>