<svg xmlns="http://www.w3.org/2000/svg" width="1100" height="640" viewBox="0 0 1100 640">
  <defs>
    <linearGradient id="bg" x1="0" y1="0" x2="1" y2="1">
      <stop offset="0%" stop-color="#fff4d6"/>
      <stop offset="55%" stop-color="#ffffff"/>
      <stop offset="100%" stop-color="#e7f8ff"/>
    </linearGradient>
    <radialGradient id="shine" cx="72%" cy="28%" r="55%">
      <stop offset="0%" stop-color="#ffffff" stop-opacity="0.75"/>
      <stop offset="50%" stop-color="#ffffff" stop-opacity="0.18"/>
      <stop offset="100%" stop-color="#ffffff" stop-opacity="0"/>
    </radialGradient>
    <filter id="shadow" x="-20%" y="-20%" width="140%" height="140%">
      <feDropShadow dx="0" dy="16" stdDeviation="18" flood-color="#245b88" flood-opacity="0.18"/>
    </filter>
    <pattern id="grid" width="34" height="34" patternUnits="userSpaceOnUse">
      <path d="M34 0H0V34" fill="none" stroke="#ffffff" stroke-opacity="0.18" stroke-width="1"/>
    </pattern>
  </defs>
  <rect width="1100" height="640" rx="56" fill="url(#bg)"/>
  <rect width="1100" height="640" rx="56" fill="url(#grid)" opacity=".65"/>
  <circle cx="865" cy="115" r="210" fill="url(#shine)"/>
  <circle cx="120" cy="555" r="230" fill="#ffffff" opacity=".18"/>
  
  <g filter="url(#shadow)">
    <rect x="520" y="175" width="330" height="275" rx="42" fill="#ffffff" opacity=".92"/>
    <g fill="#dbeafe">
      <rect x="555" y="210" width="58" height="48" rx="12"/><rect x="635" y="210" width="58" height="48" rx="12"/>
      <rect x="715" y="210" width="58" height="48" rx="12"/><rect x="555" y="345" width="58" height="48" rx="12"/>
      <rect x="635" y="345" width="58" height="48" rx="12"/><rect x="715" y="345" width="58" height="48" rx="12"/>
    </g>
    <path d="M565 302h85l-36-70h122l-58 108h110" fill="none" stroke="#ff8a3d" stroke-width="17" stroke-linecap="round" stroke-linejoin="round"/>
    <g stroke="#1a91d6" stroke-width="10" stroke-linecap="round">
      <path d="M505 230h55"/><path d="M505 390h55"/><path d="M850 230h65"/><path d="M850 390h65"/>
    </g>
  </g>
  <g transform="translate(280 365)" filter="url(#shadow)">
    <circle r="78" fill="#ffffff" opacity=".9"/>
    <path d="M-52 18c28-86 78-86 104 0" stroke="#8067e8" stroke-width="14" fill="none" stroke-linecap="round"/>
    <path d="M-48 48h96" stroke="#13a886" stroke-width="12" stroke-linecap="round"/>
  </g>

  <g filter="url(#shadow)">
    <rect x="58" y="56" width="470" height="126" rx="34" fill="#ffffff" opacity=".92"/>
    <text x="96" y="112" font-family="Microsoft YaHei, PingFang SC, Arial, sans-serif" font-size="38" font-weight="900" fill="#17324d">电力电子与电力传动</text>
    <text x="96" y="150" font-family="Arial, sans-serif" font-size="22" font-weight="700" fill="#5f7288">Converter · Inverter · SiC/GaN</text>
  </g>
</svg>