<svg xmlns="http://www.w3.org/2000/svg" width="1100" height="640" viewBox="0 0 1100 640">
  <defs>
    <linearGradient id="bg" x1="0" y1="0" x2="1" y2="1">
      <stop offset="0%" stop-color="#eafff5"/>
      <stop offset="55%" stop-color="#ffffff"/>
      <stop offset="100%" stop-color="#fff6d9"/>
    </linearGradient>
    <radialGradient id="shine" cx="72%" cy="28%" r="55%">
      <stop offset="0%" stop-color="#ffffff" stop-opacity="0.75"/>
      <stop offset="50%" stop-color="#ffffff" stop-opacity="0.18"/>
      <stop offset="100%" stop-color="#ffffff" stop-opacity="0"/>
    </radialGradient>
    <filter id="shadow" x="-20%" y="-20%" width="140%" height="140%">
      <feDropShadow dx="0" dy="16" stdDeviation="18" flood-color="#245b88" flood-opacity="0.18"/>
    </filter>
    <pattern id="grid" width="34" height="34" patternUnits="userSpaceOnUse">
      <path d="M34 0H0V34" fill="none" stroke="#ffffff" stroke-opacity="0.18" stroke-width="1"/>
    </pattern>
  </defs>
  <rect width="1100" height="640" rx="56" fill="url(#bg)"/>
  <rect width="1100" height="640" rx="56" fill="url(#grid)" opacity=".65"/>
  <circle cx="865" cy="115" r="210" fill="url(#shine)"/>
  <circle cx="120" cy="555" r="230" fill="#ffffff" opacity=".18"/>
  
  <circle cx="835" cy="110" r="58" fill="#f5b700" opacity=".95"/>
  <g stroke="#13a886" stroke-width="14" stroke-linecap="round">
    <path d="M640 320v170"/><path d="M640 320l-125-82"/><path d="M640 320l132-70"/><path d="M640 320l-10-155"/>
  </g>
  <circle cx="640" cy="320" r="36" fill="#ffffff" filter="url(#shadow)"/>
  <g filter="url(#shadow)">
    <rect x="230" y="390" width="78" height="52" rx="10" fill="#1a91d6" opacity=".9"/>
    <rect x="320" y="390" width="78" height="52" rx="10" fill="#1a91d6" opacity=".9"/>
    <rect x="410" y="390" width="78" height="52" rx="10" fill="#1a91d6" opacity=".9"/>
    <rect x="250" y="452" width="250" height="12" rx="6" fill="#17324d" opacity=".18"/>
  </g>
  <g filter="url(#shadow)">
    <rect x="805" y="360" width="120" height="95" rx="18" fill="#ffffff" opacity=".92"/>
    <path d="M835 395h60M835 420h60" stroke="#ff8a3d" stroke-width="12" stroke-linecap="round"/>
  </g>

  <g filter="url(#shadow)">
    <rect x="58" y="56" width="470" height="126" rx="34" fill="#ffffff" opacity=".92"/>
    <text x="96" y="112" font-family="Microsoft YaHei, PingFang SC, Arial, sans-serif" font-size="38" font-weight="900" fill="#17324d">新能源与智能电网</text>
    <text x="96" y="150" font-family="Arial, sans-serif" font-size="22" font-weight="700" fill="#5f7288">Solar · Wind · Storage · Microgrid</text>
  </g>
</svg>