<svg xmlns="http://www.w3.org/2000/svg" width="900" height="520" viewBox="0 0 900 520">
  <defs>
    <linearGradient id="g" x1="0" x2="1" y1="0" y2="1">
      <stop offset="0" stop-color="#eef1ff"/>
      <stop offset="1" stop-color="#e9fff7"/>
    </linearGradient>
    <filter id="s" x="-20%" y="-20%" width="140%" height="140%">
      <feDropShadow dx="0" dy="12" stdDeviation="16" flood-color="#27679e" flood-opacity=".18"/>
    </filter>
  </defs>
  <rect width="900" height="520" rx="44" fill="url(#g)"/>
  <circle cx="760" cy="80" r="145" fill="#fff" opacity=".22"/>
  <circle cx="120" cy="430" r="170" fill="#fff" opacity=".20"/>
  <g fill="none" stroke="#8067e8" stroke-width="14" stroke-linecap="round" stroke-linejoin="round"><rect x="445" y="170" width="120" height="80" rx="20"/><rect x="665" y="170" width="120" height="80" rx="20"/><rect x="555" y="325" width="120" height="80" rx="20"/><path d="M565 210h100M725 250v75M665 365h-90M555 365h-90V210h-20"/></g><circle cx="445" cy="210" r="18" fill="#13a886"/><circle cx="785" cy="210" r="18" fill="#ff8a3d"/>
  <g filter="url(#s)">
    <rect x="54" y="52" width="360" height="110" rx="28" fill="#fff" opacity=".88"/>
    <text x="84" y="102" font-family="Arial, sans-serif" font-size="34" font-weight="800" fill="#17324d">自动控制</text>
    <text x="84" y="136" font-family="Arial, sans-serif" font-size="20" fill="#5f7288">Control & Automation</text>
  </g>
</svg>