<svg xmlns="http://www.w3.org/2000/svg" width="900" height="520" viewBox="0 0 900 520">
  <defs>
    <linearGradient id="g" x1="0" x2="1" y1="0" y2="1">
      <stop offset="0" stop-color="#e9fff7"/>
      <stop offset="1" stop-color="#fff7d7"/>
    </linearGradient>
    <filter id="s" x="-20%" y="-20%" width="140%" height="140%">
      <feDropShadow dx="0" dy="12" stdDeviation="16" flood-color="#27679e" flood-opacity=".18"/>
    </filter>
  </defs>
  <rect width="900" height="520" rx="44" fill="url(#g)"/>
  <circle cx="760" cy="80" r="145" fill="#fff" opacity=".22"/>
  <circle cx="120" cy="430" r="170" fill="#fff" opacity=".20"/>
  <g stroke="#13a886" stroke-width="13" stroke-linecap="round"><path d="M560 270v145"/><path d="M560 270l-105-70"/><path d="M560 270l115-55"/><path d="M560 270l-5-130"/></g><circle cx="560" cy="270" r="32" fill="#fff"/><circle cx="705" cy="110" r="44" fill="#f5b700" opacity=".9"/><g fill="#1a91d6" opacity=".9"><rect x="430" y="380" width="60" height="38" rx="8"/><rect x="500" y="380" width="60" height="38" rx="8"/><rect x="570" y="380" width="60" height="38" rx="8"/></g>
  <g filter="url(#s)">
    <rect x="54" y="52" width="360" height="110" rx="28" fill="#fff" opacity=".88"/>
    <text x="84" y="102" font-family="Arial, sans-serif" font-size="34" font-weight="800" fill="#17324d">新能源</text>
    <text x="84" y="136" font-family="Arial, sans-serif" font-size="20" fill="#5f7288">Renewable & Smart Grid</text>
  </g>
</svg>