<svg xmlns="http://www.w3.org/2000/svg" width="1100" height="640" viewBox="0 0 1100 640">
  <defs>
    <linearGradient id="bg" x1="0" y1="0" x2="1" y2="1">
      <stop offset="0%" stop-color="#eff2ff"/>
      <stop offset="55%" stop-color="#ffffff"/>
      <stop offset="100%" stop-color="#eafff5"/>
    </linearGradient>
    <radialGradient id="shine" cx="72%" cy="28%" r="55%">
      <stop offset="0%" stop-color="#ffffff" stop-opacity="0.75"/>
      <stop offset="50%" stop-color="#ffffff" stop-opacity="0.18"/>
      <stop offset="100%" stop-color="#ffffff" stop-opacity="0"/>
    </radialGradient>
    <filter id="shadow" x="-20%" y="-20%" width="140%" height="140%">
      <feDropShadow dx="0" dy="16" stdDeviation="18" flood-color="#245b88" flood-opacity="0.18"/>
    </filter>
    <pattern id="grid" width="34" height="34" patternUnits="userSpaceOnUse">
      <path d="M34 0H0V34" fill="none" stroke="#ffffff" stroke-opacity="0.18" stroke-width="1"/>
    </pattern>
  </defs>
  <rect width="1100" height="640" rx="56" fill="url(#bg)"/>
  <rect width="1100" height="640" rx="56" fill="url(#grid)" opacity=".65"/>
  <circle cx="865" cy="115" r="210" fill="url(#shine)"/>
  <circle cx="120" cy="555" r="230" fill="#ffffff" opacity=".18"/>
  
  <g filter="url(#shadow)" fill="#ffffff" opacity=".92">
    <rect x="520" y="170" width="155" height="92" rx="26"/>
    <rect x="770" y="170" width="155" height="92" rx="26"/>
    <rect x="645" y="372" width="155" height="92" rx="26"/>
  </g>
  <g stroke="#8067e8" stroke-width="14" stroke-linecap="round" stroke-linejoin="round" fill="none">
    <path d="M675 216h95"/><path d="M848 262v110"/><path d="M645 418H430V216h90"/>
    <path d="M604 216l-22 -18M604 216l-22 18"/><path d="M848 372l-18-22M848 372l18-22"/>
  </g>
  <g transform="translate(300 345)" filter="url(#shadow)">
    <circle cx="0" cy="0" r="64" fill="#ffffff" opacity=".9"/>
    <path d="M-35 52l35-105 35 105M-18 0h36" stroke="#13a886" stroke-width="13" fill="none" stroke-linecap="round" stroke-linejoin="round"/>
    <circle cx="0" cy="-58" r="22" fill="#ff8a3d"/>
  </g>
  <text x="555" y="226" font-family="Arial" font-size="24" font-weight="800" fill="#17324d">Controller</text>
  <text x="816" y="226" font-family="Arial" font-size="24" font-weight="800" fill="#17324d">Plant</text>
  <text x="688" y="428" font-family="Arial" font-size="24" font-weight="800" fill="#17324d">Sensor</text>

  <g filter="url(#shadow)">
    <rect x="58" y="56" width="470" height="126" rx="34" fill="#ffffff" opacity=".92"/>
    <text x="96" y="112" font-family="Microsoft YaHei, PingFang SC, Arial, sans-serif" font-size="38" font-weight="900" fill="#17324d">控制理论与自动化</text>
    <text x="96" y="150" font-family="Arial, sans-serif" font-size="22" font-weight="700" fill="#5f7288">Feedback · Robot · Automation</text>
  </g>
</svg>