<svg xmlns="http://www.w3.org/2000/svg" width="1100" height="640" viewBox="0 0 1100 640">
  <defs>
    <linearGradient id="bg" x1="0" y1="0" x2="1" y2="1">
      <stop offset="0%" stop-color="#dff6ff"/>
      <stop offset="55%" stop-color="#f3fbff"/>
      <stop offset="100%" stop-color="#fff1bd"/>
    </linearGradient>
    <radialGradient id="shine" cx="72%" cy="28%" r="55%">
      <stop offset="0%" stop-color="#ffffff" stop-opacity="0.75"/>
      <stop offset="50%" stop-color="#ffffff" stop-opacity="0.18"/>
      <stop offset="100%" stop-color="#ffffff" stop-opacity="0"/>
    </radialGradient>
    <filter id="shadow" x="-20%" y="-20%" width="140%" height="140%">
      <feDropShadow dx="0" dy="16" stdDeviation="18" flood-color="#245b88" flood-opacity="0.18"/>
    </filter>
    <pattern id="grid" width="34" height="34" patternUnits="userSpaceOnUse">
      <path d="M34 0H0V34" fill="none" stroke="#ffffff" stroke-opacity="0.18" stroke-width="1"/>
    </pattern>
  </defs>
  <rect width="1100" height="640" rx="56" fill="url(#bg)"/>
  <rect width="1100" height="640" rx="56" fill="url(#grid)" opacity=".65"/>
  <circle cx="865" cy="115" r="210" fill="url(#shine)"/>
  <circle cx="120" cy="555" r="230" fill="#ffffff" opacity=".18"/>
  
  <g transform="translate(610 340)" filter="url(#shadow)">
    <circle r="150" fill="#ffffff" opacity=".88"/>
    <circle r="122" fill="none" stroke="#1a91d6" stroke-width="22"/>
    <circle r="62" fill="none" stroke="#8fd7ff" stroke-width="20"/>
    <circle r="28" fill="#f5b700"/>
    <g stroke="#1a91d6" stroke-width="16" stroke-linecap="round">
      <path d="M0 -188V-245"/><path d="M0 188V245"/><path d="M188 0H245"/><path d="M-188 0H-245"/>
      <path d="M133 -133l42 -42"/><path d="M133 133l42 42"/><path d="M-133 -133l-42 -42"/><path d="M-133 133l-42 42"/>
    </g>
    <g stroke="#ff8a3d" stroke-width="10" fill="none" opacity=".85">
      <path d="M-110 -38C-50 -92 48 -92 110 -38"/>
      <path d="M-110 38C-50 92 48 92 110 38"/>
    </g>
  </g>
  <g transform="translate(285 350)" filter="url(#shadow)">
    <rect x="-90" y="-72" width="180" height="144" rx="28" fill="#ffffff" opacity=".85"/>
    <path d="M-52 0h104M-30 -32h60M-30 32h60" stroke="#13a886" stroke-width="14" stroke-linecap="round"/>
  </g>

  <g filter="url(#shadow)">
    <rect x="58" y="56" width="470" height="126" rx="34" fill="#ffffff" opacity=".92"/>
    <text x="96" y="112" font-family="Microsoft YaHei, PingFang SC, Arial, sans-serif" font-size="38" font-weight="900" fill="#17324d">电机与电器</text>
    <text x="96" y="150" font-family="Arial, sans-serif" font-size="22" font-weight="700" fill="#5f7288">Motor · Magnetic Field · Drive</text>
  </g>
</svg>